<?xml version="1.0" encoding="UTF-8" standalone="no"?>
<!-- Created with Inkscape (http://www.inkscape.org/) -->

<svg
   xmlns:dc="http://purl.org/dc/elements/1.1/"
   xmlns:cc="http://creativecommons.org/ns#"
   xmlns:rdf="http://www.w3.org/1999/02/22-rdf-syntax-ns#"
   xmlns:svg="http://www.w3.org/2000/svg"
   xmlns="http://www.w3.org/2000/svg"
   xmlns:sodipodi="http://sodipodi.sourceforge.net/DTD/sodipodi-0.dtd"
   xmlns:inkscape="http://www.inkscape.org/namespaces/inkscape"
   width="1172.5724"
   height="656.31213"
   id="svg3824"
   version="1.1"
   inkscape:version="0.91 r13725"
   sodipodi:docname="raspberrypi-b-SUSI-AI-case.svg">
  <defs
     id="defs3826" />
  <sodipodi:namedview
     id="base"
     pagecolor="#ffffff"
     bordercolor="#666666"
     borderopacity="1.0"
     inkscape:pageopacity="0.0"
     inkscape:pageshadow="2"
     inkscape:zoom="0.70710678"
     inkscape:cx="667.84619"
     inkscape:cy="155.39918"
     inkscape:document-units="mm"
     inkscape:current-layer="layer1"
     showgrid="true"
     units="mm"
     inkscape:snap-smooth-nodes="true"
     inkscape:object-nodes="true"
     inkscape:object-paths="true"
     inkscape:snap-bbox="true"
     inkscape:bbox-nodes="true"
     inkscape:snap-bbox-edge-midpoints="true"
     inkscape:window-width="1366"
     inkscape:window-height="742"
     inkscape:window-x="0"
     inkscape:window-y="0"
     inkscape:window-maximized="1"
     showguides="true"
     fit-margin-top="0"
     fit-margin-left="0"
     fit-margin-right="0"
     fit-margin-bottom="0">
    <inkscape:grid
       type="xygrid"
       id="grid5137"
       originx="-653.92074"
       originy="135.70676" />
  </sodipodi:namedview>
  <metadata
     id="metadata3829">
    <rdf:RDF>
      <cc:Work
         rdf:about="">
        <dc:format>image/svg+xml</dc:format>
        <dc:type
           rdf:resource="http://purl.org/dc/dcmitype/StillImage" />
        <dc:title></dc:title>
      </cc:Work>
    </rdf:RDF>
  </metadata>
  <g
     inkscape:label="Layer 1"
     inkscape:groupmode="layer"
     id="layer1"
     transform="translate(-653.92074,-531.75669)">
    <text
       xml:space="preserve"
       style="font-style:normal;font-weight:normal;font-size:20px;line-height:125%;font-family:Sans;letter-spacing:0px;word-spacing:0px;fill:#000000;fill-opacity:1;stroke:none"
       x="1654"
       y="660.36206"
       id="text5680"
       sodipodi:linespacing="125%"><tspan
         sodipodi:role="line"
         id="tspan5682"
         x="1654"
         y="660.36206" /></text>
    <rect
       style="fill:none;stroke:#ff0000;stroke-width:0.70866144;stroke-miterlimit:4;stroke-dasharray:none;stroke-opacity:1"
       id="rect2989-7-4-6-0-7-5-0-2"
       width="35.433071"
       height="10.629921"
       x="549.75159"
       y="907.84534"
       transform="matrix(0,1,1,0,0,0)" />
    <rect
       style="fill:none;stroke:#ff0000;stroke-width:0.70866144;stroke-miterlimit:4;stroke-dasharray:none;stroke-opacity:1"
       id="rect2989-7-4-6-0-9-7-8-1-7"
       width="35.433071"
       height="10.629921"
       x="620.46161"
       y="907.84534"
       transform="matrix(0,1,1,0,0,0)" />
    <rect
       style="fill:none;stroke:#ff0000;stroke-width:0.70866144;stroke-miterlimit:4;stroke-dasharray:none;stroke-opacity:1"
       id="rect2989-7-4-6-0-7-5-7-8-4"
       width="35.433071"
       height="10.629921"
       x="549.74768"
       y="1120.3236"
       transform="matrix(0,1,1,0,0,0)" />
    <rect
       style="fill:none;stroke:#ff0000;stroke-width:0.70866144;stroke-miterlimit:4;stroke-dasharray:none;stroke-opacity:1"
       id="rect2989-7-4-6-0-9-7-8-3-6-9"
       width="35.433071"
       height="10.629921"
       x="620.4577"
       y="1120.3236"
       transform="matrix(0,1,1,0,0,0)" />
    <path
       style="fill:none;stroke:#ff0000;stroke-width:0.70866144;stroke-miterlimit:4;stroke-dasharray:none;stroke-opacity:1"
       d="m 911.32987,532.11102 c -5.84359,0 -10.5625,4.71969 -10.5625,10.53125 l 0,371.8748 c 0,1.44632 0.28425,2.84051 0.8125,4.09375 0.52825,1.25324 1.30545,2.36468 2.25,3.3125 0.94456,0.94782 2.06359,1.71992 3.3125,2.25 1.24892,0.53008 2.62118,0.8125 4.0625,0.8125 l 216.40623,2e-4 c 1.4414,0 2.8136,-0.28242 4.0625,-0.8125 1.2489,-0.53008 2.368,-1.30218 3.3125,-2.25 0.9446,-0.94782 1.7218,-2.09051 2.25,-3.34375 0.5283,-1.25324 0.8125,-2.61618 0.8125,-4.0625 l 0,-371.875 c 0,-5.81156 -4.7501,-10.53125 -10.5937,-10.53125 -3.4762,0 -6.4791,1.74748 -8.5,4.25 -2.772,3.4325 -6.6695,6.28125 -20.2813,6.28125 l -158.53123,0 c -13.61181,0 -17.5405,-2.84875 -20.3125,-6.28125 -2.02097,-2.50252 -5.0238,-4.25 -8.5,-4.25 z"
       id="rect4340-0"
       inkscape:connector-curvature="0"
       sodipodi:nodetypes="sssssssssssssssssss" />
    <path
       style="color:#000000;display:inline;overflow:visible;visibility:visible;fill:none;stroke:#ff0000;stroke-width:0.70866144;stroke-linecap:butt;stroke-linejoin:round;stroke-miterlimit:4;stroke-dasharray:none;stroke-dashoffset:0;stroke-opacity:1;marker:none;enable-background:accumulate"
       d="m 1019.3924,556.07977 c -7.7665,0 -14.0625,4.31978 -14.0625,9.625 l -6.25003,0 c -0.9815,0 -1.75,0.79975 -1.75,1.78125 l 0,2.6875 c 0,0.9815 0.7685,1.75 1.75,1.75 l 40.62503,0 c 0.9815,0 1.7812,-0.7685 1.7812,-1.75 l 0,-2.6875 c 0,-0.9815 -0.7997,-1.78125 -1.7812,-1.78125 l -6.25,0 c 0,-5.30522 -6.296,-9.625 -14.0625,-9.625 z"
       id="rect3977-3"
       inkscape:connector-curvature="0" />
    <rect
       style="fill:none;stroke:#ff0000;stroke-width:0.70866144;stroke-miterlimit:4;stroke-dasharray:none;stroke-opacity:1"
       id="rect2989-7-4-6-0-7-5-1"
       width="35.433071"
       height="10.629921"
       x="-655.89471"
       y="-884.47528"
       transform="matrix(0,-1,-1,0,0,0)" />
    <rect
       style="fill:none;stroke:#ff0000;stroke-width:0.70866144;stroke-miterlimit:4;stroke-dasharray:none;stroke-opacity:1"
       id="rect2989-7-4-6-0-9-7-8-7"
       width="35.433071"
       height="10.629921"
       x="-585.18463"
       y="-884.47528"
       transform="matrix(0,-1,-1,0,0,0)" />
    <rect
       style="fill:none;stroke:#ff0000;stroke-width:0.70866144;stroke-miterlimit:4;stroke-dasharray:none;stroke-opacity:1"
       id="rect2989-7-4-6-0-7-5-7-4"
       width="35.433071"
       height="10.629921"
       x="-655.89862"
       y="-671.99707"
       transform="matrix(0,-1,-1,0,0,0)" />
    <rect
       style="fill:none;stroke:#ff0000;stroke-width:0.70866144;stroke-miterlimit:4;stroke-dasharray:none;stroke-opacity:1"
       id="rect2989-7-4-6-0-9-7-8-3-1"
       width="35.433071"
       height="10.629921"
       x="-585.18854"
       y="-671.99707"
       transform="matrix(0,-1,-1,0,0,0)" />
    <path
       sodipodi:nodetypes="sssssssssscssssssss"
       inkscape:connector-curvature="0"
       style="fill:none;stroke:#ff0000;stroke-width:0.70866144;stroke-miterlimit:4;stroke-dasharray:none;stroke-opacity:1"
       d="m 664.71258,542.6552 c -1.44133,0 -2.81359,0.28242 -4.0625,0.8125 -1.24892,0.53008 -2.36795,1.30218 -3.3125,2.25 -0.94456,0.94782 -1.72176,2.09052 -2.25,3.34375 -0.52825,1.25323 -0.8125,2.6162 -0.8125,4.0625 l 0,361.36187 c 0,5.8116 4.75016,10.5313 10.59375,10.5313 3.4762,0 6.44778,-1.7475 8.46875,-4.25 2.772,-3.4325 6.70069,-6.2813 20.3125,-6.2813 l 158.56249,0 c 13.61181,0 17.50924,2.8488 20.28125,6.2813 2.02096,2.5026 5.0238,4.2187 8.5,4.2187 5.84359,0 10.5625,-4.6885 10.5625,-10.5 l 0,-361.36187 c 0,-1.44633 -0.28424,-2.80925 -0.8125,-4.0625 -0.52825,-1.25325 -1.30545,-2.39592 -2.25,-3.34375 -0.94454,-0.94783 -2.06358,-1.71992 -3.3125,-2.25 -1.24891,-0.53008 -2.62117,-0.8125 -4.0625,-0.8125 z"
       id="path4170" />
    <rect
       style="color:#000000;display:inline;overflow:visible;visibility:visible;fill:none;stroke:#ff0000;stroke-width:0.70866144;stroke-linecap:butt;stroke-linejoin:round;stroke-miterlimit:4;stroke-dasharray:none;stroke-dashoffset:0;stroke-opacity:1;marker:none;enable-background:accumulate"
       id="rect3190-2"
       width="58.810303"
       height="51.769001"
       x="679.73059"
       y="580.50421"
       rx="1.6372157" />
    <rect
       style="color:#000000;display:inline;overflow:visible;visibility:visible;fill:none;stroke:#ff0000;stroke-width:0.70866144;stroke-linecap:butt;stroke-linejoin:round;stroke-miterlimit:4;stroke-dasharray:none;stroke-dashoffset:0;stroke-opacity:1;marker:none;enable-background:accumulate"
       id="rect3192-1"
       width="58.350315"
       height="63.65242"
       x="746.5108"
       y="568.90515"
       rx="3.5433071" />
    <rect
       rx="3.5433071"
       y="568.90515"
       x="811.84082"
       height="63.65242"
       width="58.350315"
       id="rect3965"
       style="color:#000000;display:inline;overflow:visible;visibility:visible;fill:none;stroke:#ff0000;stroke-width:0.70866144;stroke-linecap:butt;stroke-linejoin:round;stroke-miterlimit:4;stroke-dasharray:none;stroke-dashoffset:0;stroke-opacity:1;marker:none;enable-background:accumulate" />
    <path
       sodipodi:nodetypes="ccssscccscscsssccscssscsccsccscscccscsssssssssssssssssssssssscccscsccsccsccsssssccscssscscccsssssccccccccccccsssssscssccsssssssssssscccccccccc"
       style="fill:none;stroke:#ff0000;stroke-width:0.70866144;stroke-miterlimit:4;stroke-dasharray:none;stroke-opacity:1"
       d="m 1510.8263,542.7009 c -0.4618,0 -0.9124,0.0808 -1.3125,0.25 -0.4001,0.16922 -0.7599,0.41616 -1.0625,0.71875 -0.3026,0.30259 -0.5496,0.66241 -0.7188,1.0625 -0.1692,0.40009 -0.25,0.85077 -0.25,1.3125 l 0,3.75 -10.625,0 0,-3.5625 c -2.8686,0 -5.1875,2.37707 -5.1875,5.28125 0,2.90418 2.3189,5.25 5.1875,5.25 l 0,25.125 c 0,0.46173 0.081,0.88116 0.25,1.28125 0.1692,0.40009 0.4162,0.75991 0.7188,1.0625 0.3026,0.30259 0.6624,0.54953 1.0625,0.71875 0.4001,0.16922 0.8507,0.28125 1.3125,0.28125 l 7.2812,0 0,35.28125 -7.2812,0 c -0.4618,0 -0.9124,0.0808 -1.3125,0.25 -0.4001,0.16922 -0.7599,0.41616 -1.0625,0.71875 -0.3026,0.30259 -0.5496,0.66241 -0.7188,1.0625 -0.1692,0.40009 -0.25,0.85077 -0.25,1.3125 l 0,287.0193 c 0,0 6.6962,-0.1133 12.3125,0.625 5.6163,0.7383 18.0542,4.64595 24.3125,5.46875 6.2583,0.8225 16.4063,0.875 16.4063,0.875 0.9751,0 1.75,0.83255 1.75,1.84375 0,1.0112 -0.7749,1.8125 -1.75,1.8125 0,0 -10.2503,-0.0492 -16.5313,-0.875 -6.281,-0.8257 -18.7162,-4.73305 -24.3125,-5.46875 -5.5963,-0.7357 -12.1875,-0.625 -12.1875,-0.625 -2.8686,0 -5.1875,2.37707 -5.1875,5.28125 0,2.90418 2.3189,5.25 5.1875,5.25 l 0,-3.5625 10.625,0 0,3.78125 c 0,0.46173 0.081,0.91242 0.25,1.3125 0.1692,0.40008 0.4162,0.75992 0.7188,1.0625 0.3026,0.30258 0.6624,0.51828 1.0625,0.6875 0.4001,0.16922 0.8507,0.28125 1.3125,0.28125 1.2887,0 2.2737,-1.53125 3.5625,-1.53125 1.2887,0 2.2425,1.53125 3.5312,1.53125 1.2888,0 2.2738,-1.53125 3.5625,-1.53125 1.2888,0 2.2425,1.53125 3.5313,1.53125 1.2887,0 2.2737,-1.53125 3.5625,-1.53125 1.2887,0 2.2737,1.53125 3.5625,1.53125 1.2887,0 2.2425,-1.53125 3.5312,-1.53125 1.2888,0 2.2738,1.53116 3.5625,1.53125 l 239.3438,0.0156 c 1.2887,8e-5 2.2425,-1.53125 3.5312,-1.53125 1.2888,0 2.2738,1.53125 3.5625,1.53125 1.2888,0 2.2738,-1.53125 3.5625,-1.53125 1.2888,0 2.2425,1.53125 3.5313,1.53125 1.2887,0 2.2737,-1.53125 3.5625,-1.53125 1.2887,0 2.2425,1.53125 3.5312,1.53125 1.2888,0 2.2738,-1.53125 3.5625,-1.53125 1.2888,0 2.2738,1.53125 3.5625,1.53125 0.4617,0 0.8812,-0.11203 1.2813,-0.28125 0.4001,-0.16922 0.7599,-0.38492 1.0625,-0.6875 0.3026,-0.30258 0.5495,-0.66242 0.7187,-1.0625 0.1692,-0.40008 0.2813,-0.85077 0.2813,-1.3125 l 0,-3.78125 10.625,0 0,3.53125 c 2.8686,0 5.1875,-2.34582 5.1875,-5.25 0,-2.90418 -2.3189,-5.25 -5.1875,-5.25 0,0 -6.5912,-0.14195 -12.1875,0.59375 -5.5963,0.7357 -18.0628,4.64305 -24.3438,5.46875 -6.2809,0.8258 -16.5,0.90625 -16.5,0.90625 -0.9751,0 -1.7812,-0.83255 -1.7812,-1.84375 0,-1.0112 0.8061,-1.8125 1.7812,-1.8125 0,0 10.1167,-0.0838 16.375,-0.90625 6.2583,-0.8228 18.7275,-4.6992 24.3438,-5.4375 4.2122,-0.55372 9.0072,-0.65272 11.1562,-0.65625 0.7163,-0.001 1.1563,0.0312 1.1563,0.0312 l 0,-287.06617 c 0,-0.46173 -0.1121,-0.88116 -0.2813,-1.28125 -0.1692,-0.40009 -0.4161,-0.75991 -0.7187,-1.0625 -0.3026,-0.30259 -0.6624,-0.54953 -1.0625,-0.71875 -0.4001,-0.16922 -0.8196,-0.28125 -1.2813,-0.28125 l -7.2812,0 0,-35.28125 7.2812,0 c 0.4617,0 0.8812,-0.0808 1.2813,-0.25 0.4001,-0.16922 0.7599,-0.41616 1.0625,-0.71875 0.3026,-0.30259 0.5495,-0.66241 0.7187,-1.0625 0.1692,-0.40009 0.2813,-0.85077 0.2813,-1.3125 l 0,-25.09375 c 2.8686,0 5.1875,-2.37707 5.1875,-5.28125 0,-2.90418 -2.3189,-5.25 -5.1875,-5.25 l 0,3.53125 -10.625,0 0,-3.71875 c 0,-0.46173 -0.1121,-0.91241 -0.2813,-1.3125 -0.1692,-0.40009 -0.4161,-0.75991 -0.7187,-1.0625 -0.3026,-0.30259 -0.6624,-0.54953 -1.0625,-0.71875 -0.4001,-0.16922 -0.8196,-0.25 -1.2813,-0.25 l -296.1562,0 z m 50.5937,7.09375 35.4375,0 0,10.625 -35.4375,0 z m 159.5,0 35.4375,0 0,10.625 -35.4375,0 z m -22.375,48.375 c 11.6635,0 21.125,9.46148 21.125,21.125 0,11.66352 -9.4615,21.125 -21.125,21.125 -11.6635,0 -21.125,-9.46148 -21.125,-21.125 0,-11.66352 9.4615,-21.125 21.125,-21.125 z m -104.5625,7 c 17.6042,0 37.2083,0.0312 54.8125,0.0312 0.7321,-10e-6 1.3125,0.58034 1.3125,1.3125 l 0,14.75 c 0,0.73216 -8.3616,7.09416 -9.0937,7.09375 l -39.2813,-0.0312 c -0.7322,-4.1e-4 -9.0937,-6.33034 -9.0937,-7.0625 l 0,-14.78125 c 0,-0.73578 0.6079,-1.3125 1.3437,-1.3125 z m -67.9687,3.65625 38.75,0 c 0.9815,0 1.7812,0.79975 1.7812,1.78125 l 0,28.125 c 0,0.9815 -0.7997,1.78125 -1.7812,1.78125 l -38.75,0 c -0.9815,0 -1.75,-0.79975 -1.75,-1.78125 l 0,-28.125 c 0,-0.9815 0.7685,-1.78125 1.75,-1.78125 z m 35.4062,36.5 35.4375,0 0,10.625 -35.4375,0 z m 159.5,0 35.4375,0 0,10.625 -35.4375,0 z"
       id="path4699"
       inkscape:connector-curvature="0" />
    <path
       style="fill:none;stroke:#ff0000;stroke-width:0.70866144;stroke-miterlimit:4;stroke-dasharray:none;stroke-opacity:1"
       d="m 1166.3575,926.79832 c -0.4617,0 -0.9124,-0.11203 -1.3125,-0.28125 -0.4001,-0.16922 -0.7599,-0.41617 -1.0625,-0.71875 -0.3026,-0.30258 -0.5495,-0.66241 -0.7187,-1.0625 -0.1693,-0.40009 -0.25,-0.81952 -0.25,-1.28125 l 0,-3.78125 -10.625,0 0,3.53125 c -2.8687,0 -5.1875,-2.34582 -5.1875,-5.25 0,-2.90418 2.3188,-5.25 5.1875,-5.25 l 0,-288.87867 c 0,-0.46173 0.081,-0.91241 0.25,-1.3125 0.1692,-0.40009 0.4161,-0.75991 0.7187,-1.0625 0.3026,-0.30259 0.6624,-0.54953 1.0625,-0.71875 0.4001,-0.16922 0.8508,-0.25 1.3125,-0.25 l 7.2813,0 0,-15.34375 c 0,-0.46173 0.1075,-0.91241 0.2812,-1.3125 0.1738,-0.40009 0.4081,-0.75991 0.7188,-1.0625 0.3107,-0.30259 0.6829,-0.54953 1.0937,-0.71875 0.4108,-0.16922 0.8697,-0.25 1.3438,-0.25 l 208.5625,0 c 0.9664,0 1.75,-0.79975 1.75,-1.78125 l 0,-3.625 c 0,-0.98149 -0.7836,-1.75 -1.75,-1.75 l -208.5625,0 c -0.4741,0 -0.933,-0.11203 -1.3438,-0.28125 -0.4108,-0.16922 -0.783,-0.41616 -1.0937,-0.71875 -0.3107,-0.30259 -0.545,-0.66241 -0.7188,-1.0625 -0.1737,-0.40009 -0.2812,-0.81952 -0.2812,-1.28125 l 0,-6.09375 -7.2813,0 c -0.4617,0 -0.9124,-0.0808 -1.3125,-0.25 -0.4001,-0.16922 -0.7599,-0.41616 -1.0625,-0.71875 -0.3026,-0.30259 -0.5495,-0.66241 -0.7187,-1.0625 -0.1693,-0.40009 -0.25,-0.85077 -0.25,-1.3125 l 0,-21.4375 c 0,0 6.6962,0.11332 12.3125,-0.625 5.6163,-0.73833 18.0542,-4.64602 24.3125,-5.46875 6.2582,-0.8227 16.4062,-0.875 16.4062,-0.875 0.9751,0 1.75,-0.83255 1.75,-1.84375 0,-1.0112 -0.7749,-1.8125 -1.75,-1.8125 0,0 -10.2503,0.0493 -16.5312,0.875 -6.281,0.82571 -18.7163,4.73305 -24.3125,5.46875 -5.5963,0.7357 -12.1875,0.625 -12.1875,0.625 -2.8687,0 -5.1875,-2.37707 -5.1875,-5.28125 0,-2.90418 2.3188,-5.25 5.1875,-5.25 l 0,3.53125 10.625,0 0,-3.71875 c 0,-0.46173 0.081,-0.91241 0.25,-1.3125 0.1692,-0.40009 0.4161,-0.75991 0.7187,-1.0625 0.3026,-0.30259 0.6624,-0.54953 1.0625,-0.71875 0.4001,-0.16922 0.8508,-0.25 1.3125,-0.25 1.2888,0 2.2738,1.53125 3.5625,1.53125 1.2888,0 2.2425,-1.53125 3.5313,-1.53125 1.2887,0 2.2737,1.53125 3.5625,1.53125 1.2887,0 2.2425,-1.53125 3.5312,-1.53125 1.2888,0 2.2738,1.53125 3.5625,1.53125 1.2888,0 2.2738,-1.53125 3.5625,-1.53125 1.2888,0 2.2425,1.53125 3.5313,1.53125 1.2887,0 2.2737,-1.53125 3.5625,-1.53125 l 239.3437,0 c 1.2888,0 2.2738,1.53125 3.5625,1.53125 1.2888,0 2.2425,-1.53125 3.5313,-1.53125 1.2887,0 2.2737,1.53125 3.5625,1.53125 1.2887,0 2.2425,-1.53125 3.5312,-1.53125 1.2888,0 2.2738,1.53125 3.5625,1.53125 1.2888,0 2.2738,-1.53125 3.5625,-1.53125 1.2888,0 2.2425,1.53125 3.5313,1.53125 1.2887,0 2.2737,-1.53125 3.5625,-1.53125 0.4617,0 0.8811,0.0808 1.2812,0.25 0.4001,0.16922 0.7599,0.41616 1.0625,0.71875 0.3026,0.30259 0.5495,0.66241 0.7188,1.0625 0.1692,0.40009 0.2812,0.85077 0.2812,1.3125 l 0,3.75 10.625,0 0,-3.5625 c 2.8687,0 5.1875,2.37707 5.1875,5.28125 0,2.90418 -2.3188,5.25 -5.1875,5.25 0,0 -6.5912,0.1107 -12.1875,-0.625 -5.5963,-0.7357 -18.0628,-4.64304 -24.3437,-5.46875 -6.281,-0.82571 -16.5,-0.875 -16.5,-0.875 -0.9751,0 -1.75,0.8013 -1.75,1.8125 0,1.0112 0.7749,1.84375 1.75,1.84375 0,0 10.1479,0.0523 16.4062,0.875 6.2583,0.82273 18.6962,4.73042 24.3125,5.46875 4.2122,0.55374 9.0385,0.62149 11.1875,0.625 0.7163,10e-4 1.125,0 1.125,0 l 0,21.46875 c 0,0.46173 -0.112,0.88116 -0.2812,1.28125 -0.1693,0.40009 -0.4162,0.75991 -0.7188,1.0625 -0.3026,0.30259 -0.6624,0.54953 -1.0625,0.71875 -0.4001,0.16922 -0.8195,0.28125 -1.2812,0.28125 l -7.2813,0 0,35.25 7.2813,0 c 0.4617,0 0.8811,0.11203 1.2812,0.28125 0.4001,0.16922 0.7599,0.41616 1.0625,0.71875 0.3026,0.30259 0.5495,0.66241 0.7188,1.0625 0.1692,0.40009 0.2812,0.81952 0.2812,1.28125 l 0,288.87867 c 2.8687,0 5.1875,2.34582 5.1875,5.25 0,2.90418 -2.3188,5.28125 -5.1875,5.28125 l 0,-3.5625 -10.625,0 0,3.78125 c 0,0.46173 -0.112,0.88116 -0.2812,1.28125 -0.1693,0.40009 -0.4162,0.75992 -0.7188,1.0625 -0.3026,0.30258 -0.6624,0.54953 -1.0625,0.71875 -0.4001,0.16922 -0.8195,0.28125 -1.2812,0.28125 z m 50.5938,-270.84742 35.4375,0 0,-10.625 -35.4375,0 z m 159.5312,0 35.4063,0 0,-10.625 -35.4063,0 z m -159.5312,-95.53125 35.4375,0 0,-10.625 -35.4375,0 z m 159.5312,0 35.4063,0 0,-10.625 -35.4063,0 z"
       id="path3412"
       inkscape:connector-curvature="0"
       sodipodi:nodetypes="ssssscccscscssscsssssssssssssscscssscsscscsscscccscsssssssssssssssssssscssscccscsscscssccsssssccssssscscccsssssscccccccccccccccccccc" />
    <ellipse
       ry="4.7395983"
       rx="4.7445183"
       cy="989.37305"
       cx="1205.2767"
       style="fill:none;stroke:#ff0000;stroke-width:0.70866144;stroke-miterlimit:4;stroke-dasharray:none;stroke-opacity:1"
       id="path3755" />
    <ellipse
       ry="4.7395983"
       rx="4.7445183"
       cy="1162.9998"
       cx="1205.2767"
       style="fill:none;stroke:#ff0000;stroke-width:0.70866144;stroke-miterlimit:4;stroke-dasharray:none;stroke-opacity:1"
       id="path3755-9" />
    <ellipse
       ry="4.7395983"
       rx="4.7445183"
       cy="1162.9998"
       cx="999.76312"
       style="fill:none;stroke:#ff0000;stroke-width:0.70866144;stroke-miterlimit:4;stroke-dasharray:none;stroke-opacity:1"
       id="path3755-6" />
    <ellipse
       ry="4.7395983"
       rx="4.7445183"
       cy="989.37305"
       cx="999.76312"
       style="fill:none;stroke:#ff0000;stroke-width:0.70866144;stroke-miterlimit:4;stroke-dasharray:none;stroke-opacity:1"
       id="path3755-8" />
    <path
       inkscape:connector-curvature="0"
       style="fill:none;stroke:#ff0000;stroke-width:0.70866144;stroke-miterlimit:4;stroke-dasharray:none;stroke-opacity:1"
       d="m 1288.5464,975.58946 c 0,-0.1963 -0.1475,-0.34375 -0.3438,-0.34375 l -53.625,0 0,-7.28125 c 0,-0.46173 -0.112,-0.91241 -0.2812,-1.3125 -0.1693,-0.40009 -0.3849,-0.75991 -0.6875,-1.0625 -0.3026,-0.30259 -0.6624,-0.54953 -1.0625,-0.71875 -0.4001,-0.16922 -0.8508,-0.25 -1.3125,-0.25 l -28.75,0 c -0.4618,0 -0.9124,0.0808 -1.3125,0.25 -0.4001,0.16922 -0.7599,0.41616 -1.0625,0.71875 -0.3026,0.30259 -0.5496,0.66241 -0.7188,1.0625 -0.1692,0.40009 -0.25,0.85077 -0.25,1.3125 l 0,7.28125 -124.0625,0 0,-7.28125 c 0,-0.46173 -0.112,-0.91241 -0.2812,-1.3125 -0.1693,-0.40009 -0.4162,-0.75991 -0.7188,-1.0625 -0.3026,-0.30259 -0.6624,-0.54953 -1.0625,-0.71875 -0.4001,-0.16922 -0.8195,-0.25 -1.2812,-0.25 l -28.75,0 c -0.4618,0 -0.9124,0.0808 -1.3125,0.25 -0.4001,0.16922 -0.7599,0.41616 -1.0625,0.71875 -0.3026,0.30259 -0.5496,0.66241 -0.7188,1.0625 -0.1692,0.40009 -0.25,0.85077 -0.25,1.3125 l 0,7.28125 -53.56249,0 c -0.1963,0 -0.34375,0.14745 -0.34375,0.34375 l 0,201.15624 c 0,0.1963 0.14745,0.3438 0.34375,0.3438 l 53.56249,0 0,7.2812 c 0,0.4617 0.112,0.9124 0.2813,1.3125 0.1692,0.4001 0.4161,0.7599 0.7187,1.0625 0.3026,0.3026 0.6624,0.5495 1.0625,0.7188 0.4001,0.1692 0.8195,0.25 1.2813,0.25 l 28.75,0 c 0.4617,0 0.9124,-0.081 1.3125,-0.25 0.4001,-0.1693 0.7599,-0.4162 1.0625,-0.7188 0.3026,-0.3026 0.5495,-0.6624 0.7187,-1.0625 0.1692,-0.4001 0.25,-0.8508 0.25,-1.3125 l 0,-7.2812 124.0625,0 0,7.2812 c 0,0.4617 0.112,0.9124 0.2813,1.3125 0.1692,0.4001 0.4161,0.7599 0.7187,1.0625 0.3026,0.3026 0.6624,0.5495 1.0625,0.7188 0.4001,0.1692 0.8195,0.25 1.2813,0.25 l 28.75,0 c 0.4617,0 0.9124,-0.081 1.3125,-0.25 0.4001,-0.1693 0.7599,-0.4162 1.0625,-0.7188 0.3026,-0.3026 0.5495,-0.6624 0.7187,-1.0625 0.1692,-0.4001 0.25,-0.8508 0.25,-1.3125 l 0,-7.2812 53.625,0 c 0.1963,0 0.3438,-0.1475 0.3438,-0.3438 l 0,-201.15624 z"
       id="rect3808-3-9" />
    <g
       style="stroke:#ff0000;stroke-width:0.70866144;stroke-miterlimit:4;stroke-dasharray:none;stroke-opacity:1"
       id="g5141"
       transform="translate(665.68662,282.50679)">
      <path
         id="rect3808-3"
         d="m 312.04724,693.08267 c 0,-0.1963 -0.14745,-0.34375 -0.34375,-0.34375 l -53.625,0 0,-7.28125 c 0,-0.46173 -0.11203,-0.91241 -0.28125,-1.3125 -0.16922,-0.40009 -0.38491,-0.75991 -0.6875,-1.0625 -0.30259,-0.30259 -0.66241,-0.54953 -1.0625,-0.71875 -0.40009,-0.16922 -0.85077,-0.25 -1.3125,-0.25 l -28.75,0 c -0.46173,0 -0.91241,0.0808 -1.3125,0.25 -0.40009,0.16922 -0.75991,0.41616 -1.0625,0.71875 -0.30259,0.30259 -0.54953,0.66241 -0.71875,1.0625 -0.16922,0.40009 -0.25,0.85077 -0.25,1.3125 l 0,7.28125 -124.0625,0 0,-7.28125 c 0,-0.46173 -0.11203,-0.91241 -0.28125,-1.3125 -0.16922,-0.40009 -0.41616,-0.75991 -0.71875,-1.0625 -0.30259,-0.30259 -0.66241,-0.54953 -1.0625,-0.71875 -0.40009,-0.16922 -0.81952,-0.25 -1.28125,-0.25 l -28.75,0 c -0.46173,0 -0.91241,0.0808 -1.3125,0.25 -0.40009,0.16922 -0.75991,0.41616 -1.0625,0.71875 -0.30259,0.30259 -0.54953,0.66241 -0.71875,1.0625 -0.16922,0.40009 -0.25,0.85077 -0.25,1.3125 l 0,7.28125 -53.5625,0 c -0.1963,0 -0.34375,0.14745 -0.34375,0.34375 l 0,201.15625 c 0,0.1963 0.14745,0.34375 0.34375,0.34375 l 53.5625,0 0,7.28125 c 0,0.46173 0.11203,0.91241 0.28125,1.3125 0.16922,0.40009 0.41616,0.75992 0.71875,1.0625 0.30259,0.30258 0.66241,0.54953 1.0625,0.71875 0.40009,0.16922 0.81952,0.25 1.28125,0.25 l 28.75,0 c 0.46173,0 0.91241,-0.0808 1.3125,-0.25 0.40009,-0.16922 0.75991,-0.41617 1.0625,-0.71875 0.30259,-0.30258 0.54953,-0.66241 0.71875,-1.0625 0.16922,-0.40009 0.25,-0.85077 0.25,-1.3125 l 0,-7.28125 124.0625,0 0,7.28125 c 0,0.46173 0.11203,0.91241 0.28125,1.3125 0.16922,0.40009 0.41616,0.75992 0.71875,1.0625 0.30259,0.30258 0.66241,0.54953 1.0625,0.71875 0.40009,0.16922 0.81952,0.25 1.28125,0.25 l 28.75,0 c 0.46173,0 0.91241,-0.0808 1.3125,-0.25 0.40009,-0.16922 0.75991,-0.41617 1.0625,-0.71875 0.30259,-0.30258 0.54953,-0.66241 0.71875,-1.0625 0.16922,-0.40009 0.25,-0.85077 0.25,-1.3125 l 0,-7.28125 53.625,0 c 0.1963,0 0.34375,-0.14745 0.34375,-0.34375 l 0,-201.15625 z"
         style="fill:none;stroke:#ff0000;stroke-width:0.70866144;stroke-miterlimit:4;stroke-dasharray:none;stroke-opacity:1"
         inkscape:connector-curvature="0" />
      <rect
         y="716.72113"
         x="19.527634"
         height="34.669044"
         width="229.55093"
         id="rect5139"
         style="fill:#d40000;fill-opacity:0;stroke:#ff0000;stroke-width:0.70866144;stroke-miterlimit:4;stroke-dasharray:none;stroke-opacity:1" />
    </g>
    <path
       sodipodi:nodetypes="cccccccccc"
       style="fill:none;stroke:#ff0000;stroke-width:0.35433072;stroke-miterlimit:4;stroke-dasharray:none;stroke-opacity:1"
       d="m 1561.42,893.3259 35.4375,0 0,10.625 -35.4375,0 z m 159.5,0 35.4375,0 0,10.625 -35.4375,0 z"
       id="path4699-5"
       inkscape:connector-curvature="0" />
    <path
       sodipodi:nodetypes="cccccccccc"
       style="fill:none;stroke:#ff0000;stroke-width:0.35433072;stroke-miterlimit:4;stroke-dasharray:none;stroke-opacity:1"
       d="m 1217.42,893.3259 35.4375,0 0,10.625 -35.4375,0 z m 159.5,0 35.4375,0 0,10.625 -35.4375,0 z"
       id="path4699-5-9"
       inkscape:connector-curvature="0" />
    <path
       inkscape:connector-curvature="0"
       style="fill:none;stroke:#ff0000;stroke-width:0.70866144;stroke-miterlimit:4;stroke-dasharray:none;stroke-opacity:1"
       d="m 1604.0677,975.58946 c 0,-0.1963 -0.1475,-0.34375 -0.3438,-0.34375 l -53.625,0 0,-7.28125 c 0,-0.46173 -0.112,-0.91241 -0.2812,-1.3125 -0.1693,-0.40009 -0.3849,-0.75991 -0.6875,-1.0625 -0.3026,-0.30259 -0.6624,-0.54953 -1.0625,-0.71875 -0.4001,-0.16922 -0.8508,-0.25 -1.3125,-0.25 l -28.75,0 c -0.4618,0 -0.9124,0.0808 -1.3125,0.25 -0.4001,0.16922 -0.7599,0.41616 -1.0625,0.71875 -0.3026,0.30259 -0.5496,0.66241 -0.7188,1.0625 -0.1692,0.40009 -0.25,0.85077 -0.25,1.3125 l 0,7.28125 -124.0625,0 0,-7.28125 c 0,-0.46173 -0.112,-0.91241 -0.2812,-1.3125 -0.1693,-0.40009 -0.4162,-0.75991 -0.7188,-1.0625 -0.3026,-0.30259 -0.6624,-0.54953 -1.0625,-0.71875 -0.4001,-0.16922 -0.8195,-0.25 -1.2812,-0.25 l -28.75,0 c -0.4618,0 -0.9124,0.0808 -1.3125,0.25 -0.4001,0.16922 -0.7599,0.41616 -1.0625,0.71875 -0.3026,0.30259 -0.5496,0.66241 -0.7188,1.0625 -0.1692,0.40009 -0.25,0.85077 -0.25,1.3125 l 0,7.28125 -53.5625,0 c -0.1963,0 -0.3438,0.14745 -0.3438,0.34375 l 0,201.15624 c 0,0.1963 0.1475,0.3438 0.3438,0.3438 l 53.5625,0 0,7.2812 c 0,0.4617 0.112,0.9124 0.2813,1.3125 0.1692,0.4001 0.4161,0.7599 0.7187,1.0625 0.3026,0.3026 0.6624,0.5495 1.0625,0.7188 0.4001,0.1692 0.8195,0.25 1.2813,0.25 l 28.75,0 c 0.4617,0 0.9124,-0.081 1.3125,-0.25 0.4001,-0.1693 0.7599,-0.4162 1.0625,-0.7188 0.3026,-0.3026 0.5495,-0.6624 0.7187,-1.0625 0.1692,-0.4001 0.25,-0.8508 0.25,-1.3125 l 0,-7.2812 124.0625,0 0,7.2812 c 0,0.4617 0.112,0.9124 0.2813,1.3125 0.1692,0.4001 0.4161,0.7599 0.7187,1.0625 0.3026,0.3026 0.6624,0.5495 1.0625,0.7188 0.4001,0.1692 0.8195,0.25 1.2813,0.25 l 28.75,0 c 0.4617,0 0.9124,-0.081 1.3125,-0.25 0.4001,-0.1693 0.7599,-0.4162 1.0625,-0.7188 0.3026,-0.3026 0.5495,-0.6624 0.7187,-1.0625 0.1692,-0.4001 0.25,-0.8508 0.25,-1.3125 l 0,-7.2812 53.625,0 c 0.1963,0 0.3438,-0.1475 0.3438,-0.3438 l 0,-201.15624 z"
       id="rect3808-3-9-2" />
    <circle
       style="fill:#800000;fill-opacity:0;stroke:#ff0000;stroke-width:0.53562218;stroke-miterlimit:4;stroke-dasharray:none;stroke-opacity:1"
       id="path5779"
       cx="1312.8888"
       cy="774.56604"
       r="88.314865" />
    <circle
       style="fill:#800000;fill-opacity:0;stroke:#ff0000;stroke-width:0.53562218;stroke-miterlimit:4;stroke-dasharray:none;stroke-opacity:1"
       id="path5779-2"
       cx="1660.5826"
       cy="772.36206"
       r="88.314865" />
    <ellipse
       ry="4.7395983"
       rx="4.7445183"
       cy="689.26813"
       cx="1397"
       style="fill:none;stroke:#ff0000;stroke-width:0.70866144;stroke-miterlimit:4;stroke-dasharray:none;stroke-opacity:1"
       id="path3755-6-8" />
    <ellipse
       ry="4.7395983"
       rx="4.7445183"
       cy="860.99976"
       cx="1397.7631"
       style="fill:none;stroke:#ff0000;stroke-width:0.70866144;stroke-miterlimit:4;stroke-dasharray:none;stroke-opacity:1"
       id="path3755-6-8-9" />
    <ellipse
       ry="4.7395983"
       rx="4.7445183"
       cy="860.99976"
       cx="1228.7631"
       style="fill:none;stroke:#ff0000;stroke-width:0.70866144;stroke-miterlimit:4;stroke-dasharray:none;stroke-opacity:1"
       id="path3755-6-8-9-7" />
    <ellipse
       ry="4.7395983"
       rx="4.7445183"
       cy="689.99976"
       cx="1228.7631"
       style="fill:none;stroke:#ff0000;stroke-width:0.70866144;stroke-miterlimit:4;stroke-dasharray:none;stroke-opacity:1"
       id="path3755-6-8-9-7-6" />
    <ellipse
       ry="4.7395983"
       rx="4.7445183"
       cy="687.36206"
       cx="1745.2555"
       style="fill:none;stroke:#ff0000;stroke-width:0.70866144;stroke-miterlimit:4;stroke-dasharray:none;stroke-opacity:1"
       id="path3755-6-8-2" />
    <ellipse
       ry="4.7395983"
       rx="4.7445183"
       cy="859.09369"
       cx="1746.0186"
       style="fill:none;stroke:#ff0000;stroke-width:0.70866144;stroke-miterlimit:4;stroke-dasharray:none;stroke-opacity:1"
       id="path3755-6-8-9-9" />
    <ellipse
       ry="4.7395983"
       rx="4.7445183"
       cy="859.09369"
       cx="1577.0186"
       style="fill:none;stroke:#ff0000;stroke-width:0.70866144;stroke-miterlimit:4;stroke-dasharray:none;stroke-opacity:1"
       id="path3755-6-8-9-7-3" />
    <ellipse
       ry="4.7395983"
       rx="4.7445183"
       cy="688.09369"
       cx="1577.0186"
       style="fill:none;stroke:#ff0000;stroke-width:0.70866144;stroke-miterlimit:4;stroke-dasharray:none;stroke-opacity:1"
       id="path3755-6-8-9-7-6-1" />
  </g>
</svg>
